<svg width="770" height="227" viewBox="0 0 770 227" fill="none" xmlns="http://www.w3.org/2000/svg">
<g clip-path="url(#clip0_13_578)">
<path d="M768.356 141.27C770.052 143.197 768.391 146.717 767.252 150.167C764.784 156.578 758.294 158.35 752.207 160.693C741.635 164.761 730.815 168.746 720.729 173.825C693.357 187.289 657.394 220.927 629.796 192.844C625.75 188.3 623.092 182.377 622.083 175.609C621.49 172.647 621.265 170.53 619.449 170.673C618.571 170.792 617.42 171.648 616.115 172.814C585.017 203.513 538.447 217.073 497.607 200.064C487.807 195.984 474.269 193.403 475.289 179.939C475.289 177.298 477.449 177.048 479.501 177.821C484.841 179.522 495.222 183.959 502.021 186.718C572.511 214.123 653.751 138.07 655.389 67.6077C655.412 61.6248 654.214 55.6776 650.239 50.9317C628.372 29.2006 593.204 40.75 567.647 50.4559C558.997 54.7498 573.413 62.3741 576.83 65.9543C589.775 77.6703 612.615 97.7838 605.935 116.898C601.474 126.188 592.017 132.765 583.439 138.177C570.411 145.683 555.96 152.213 540.749 151.487C533.772 151.023 528.124 146.777 525.36 140.437C515.773 119.943 535.742 97.7243 557.039 88.4229C561.773 86.3295 566.662 84.914 571.135 84.2242C572.582 83.8792 574.493 83.8317 574.884 82.3211C574.789 81.1554 573.828 79.6805 572.844 78.5981C565.962 71.628 558.095 55.2256 546.586 59.6622C532.431 65.9186 518.763 73.5192 505.545 81.5955C476.428 99.0446 452.603 124.404 422.763 140.675C392.317 156.685 359.285 166.165 330.405 184.601C319.786 190.739 308.989 196.626 298.132 202.3C292.603 205.44 296.305 205.868 300.446 205.309C344.216 200.373 391.202 190.156 435.067 189.395C442.898 189.549 444.974 195.651 445.354 201.86C445.401 202.55 445.389 203.252 445.033 203.763C444.689 204.084 444.298 204.037 443.823 204.108C425.753 206.237 266.915 224.983 254.647 226.422C250.091 225.922 246.745 218.274 247.03 213.945C247.338 210.65 249.308 210.305 253.14 208.152C263.653 202.526 280.062 193.748 292.319 187.206C295.712 185.362 298.334 184.137 297.575 183.995C260.141 189.728 220.084 189.085 186.328 170.506C182.033 168.401 177.904 169.864 174.261 172.516C135.297 198.185 89.6281 214.67 43.3782 221.188C41.1594 221.331 39.5695 221.307 39.2492 219.654C38.917 217.085 41.6222 213.386 43.5324 210.436C45.7868 207.296 48.5988 205.631 52.5024 204.869C86.3771 199.303 118.306 185.267 148.941 170.114C172.304 157.803 91.6214 172.207 89.2722 173.944C79.8869 176.12 69.944 180.902 60.9978 183.412C59.6808 183.733 58.0315 184.078 56.9993 183.34C55.8246 182.246 56.145 180.878 56.3941 179.094C56.7738 177.31 57.3196 175.205 57.9722 173.432C60.4283 165.475 69.9678 164.678 77.1342 162.382C101.92 155.567 127.834 153.355 153.415 152.26C160.32 151.582 145.121 143.601 143.507 142.126C102.098 112.01 19.9685 127.805 1.9811 72.6033C-7.7245 45.4721 20.9889 7.5765 29.4131 34.0178C30.3623 37.6694 26.6841 38.8588 24.1924 40.2624C20.2414 42.3677 16.7293 46.6497 14.2377 50.896C10.4409 57.2119 8.13905 66.2041 8.58992 73.0077C10.429 104.516 104.103 106.431 130.42 124.475C136.471 127.544 140.327 130.089 146.402 134.288C152.157 138.249 159.703 143.494 165.291 147.086C173.016 152.403 175.733 152.867 180.633 144.719C185.118 137.024 188.416 124.07 186.886 117.814C185.806 113.639 180.313 110.558 175.958 108.953C168.353 106.157 163.583 107.93 156.144 107.121C141.989 105.503 123.111 100.567 111.044 93.1331C91.2892 81.0008 88.3823 43.8783 113.085 37.3601C139.082 30.0808 163.144 55.7608 191.584 45.8409C201.231 43.0695 207.4 35.1478 217.426 33.1971C238.677 28.8199 248.133 41.9633 245.096 61.7318C243.292 74.0663 225.554 89.2674 214.306 93.7873C207.46 96.6895 199.605 98.89 192.439 101.483C190.837 102.066 189.069 102.934 188.321 104.266C187.171 106.526 189.01 109.321 190.137 111.474C195.654 121.525 197.03 133.051 194.408 144.267C193.127 149.37 194.218 151.666 199.985 150.738C227.559 147.169 255.145 143.185 281.759 135.049C283.728 134.466 286.101 133.729 287.988 134.05C290.598 134.276 292.663 137.523 293.149 140.354C294.454 145.516 290.503 148.097 286.267 149.334C259.939 158.814 231.356 160.36 203.841 164.321C202.524 164.904 203.01 165.737 204.838 166.557C267.485 185.588 356.674 158.148 417.542 125.76C442.874 111.891 463.958 91.6344 487.629 75.2677C500.728 66.2517 514.776 58.2349 529.133 51.1696C532.645 49.1356 539.515 47.5893 532.313 43.3549C521.919 36.1112 508.167 29.2006 497.928 22.4088C493.953 19.6018 489.622 16.9136 485.458 14.4634C481.744 12.251 479.513 7.74302 479.157 3.5205C479.015 1.80771 479.359 0.582579 480.225 0.166275C481.862 -0.499813 484.651 1.01078 486.383 2.00991C505.165 13.5356 524.683 24.1454 542.659 36.92C546.479 40.0364 551.285 40.7144 555.663 38.4187C578.669 28.6415 611.88 17.77 635.182 27.4997C670.445 42.9862 663.765 93.3115 651.473 122.845C645.968 135.691 634.601 146.361 629.416 159.278C627.565 164.345 625.738 170.483 628.158 175.347C633.32 184.875 645.185 189.526 655.555 188.217C670.528 186.481 684.066 177.322 696.821 169.876C717.229 158.1 739.583 147.954 762.328 141.413C764.191 140.889 767.145 140.092 768.261 141.198L768.344 141.282L768.356 141.27ZM226.764 48.3149C207.27 49.2189 200.092 64.7054 177.026 63.6706C155.242 63.4922 125.081 42.7245 106.963 56.8551C95.9047 67.12 99.6422 72.9364 111.211 80.0492C130.835 91.5749 160.249 93.8468 183.54 88.5775C203.556 83.1775 224.961 75.9813 238.344 59.6741C244.728 51.5621 233.765 47.8748 227.001 48.303H226.764V48.3149ZM530.557 135.953C531.363 137.059 533.701 137.166 535.291 137.071C555.046 136.06 576.059 127.353 590.89 114.448C593.572 111.677 600.762 105.931 599.528 102.351C596.514 98.2239 584.815 99.2706 579.524 99.4371C560.053 100.734 537.877 112.652 530.77 131.029C530.177 132.504 529.643 134.799 530.485 135.822L530.568 135.929L530.557 135.953Z" fill="#2A2523"/>
<path d="M357.636 31.3775C384.605 28.2017 411.622 49.1716 415.81 75.9697C422.977 122.655 336.219 151.119 320.676 98.3194C312.454 71.4855 327.166 35.041 357.399 31.4013L357.636 31.3775ZM403.826 58.8893C402.082 56.8316 398.107 54.7739 395.034 53.0373C390.217 50.4086 385.376 47.7324 380.678 46.4478C350.635 37.0393 324.841 66.2877 325.932 95.8691C325.624 106.098 335.899 110.107 344.288 112.081C367.223 117.196 392.828 104.968 403.933 84.3196C407.706 76.8618 409.581 65.8833 403.945 59.0321L403.815 58.8893H403.826Z" fill="#2A2523"/>
</g>
<defs>
<clipPath id="clip0_13_578">
<rect width="769.08" height="226.446" fill="white"/>
</clipPath>
</defs>
</svg>
