<?xml version="1.0" encoding="UTF-8"?>
<svg id="_레이어_2" data-name="레이어 2" xmlns="http://www.w3.org/2000/svg" viewBox="0 0 526.45 324.36">
  <g id="_레이어_1-2" data-name="레이어 1">
    <path d="M271.02,16.58c20.58,18.61,30.6,46.12,39.84,71.63,3.6,8.43,7.64,1.7,10.5-3.44,11.18-20.3,28.4-39.28,50.85-47.53,8.98-3.21,22.53-8.99,31.48-4.9,2.47,1.4,3.25,3.86,2.19,6.69-2.9,6.84-10.97,10.98-16.97,15.1-11.21,7.06-21.12,15.76-31.3,24.34-8.05,6.85-16.16,13.99-22.44,22.54-9.04,12.47-1.55,13.83,9.48,9.5,10.91-4.01,21.82-8.22,32.84-12.19,15.65-6.49,33.97-9.98,46.51,3.96,16.84,21.58-13.25,47.9-30.9,57.74-8.84,5.06-21.97,7.32-28.89-1.86-4.95-6.21-6.09-15.89-12.59-20.88-5.87-5.03-16.13-3.58-18.57,4.1-3.65,10.03,10.86,34.58,16.66,43.64,13.55,21.18,25.49,22.3,47.16,11.62,15-7.35,21.57-16.27,31.71-29.33,4.36-5.33,9.47-10.1,14.11-15.2,10.33-11.23,30.85-33.73,26.75-49.6-1.92-6.61-9.47-9.51-13.99-13.83-3.54-3-4.36-7.63.57-9.21,5.39-1.61,11.3-.58,16.91-.62,11.11.06,22.07.07,33.18,1.08,8.27.59,22.1,2.8,20.13,13.78-1.54,7.48-9.3,14.93-12.86,22.33-7.08,13.77-13.16,28.58-18.09,43.09-6.14,16.97-14.78,35.63-26.2,48.99-13.63,15.55-31.05,15.33-50.09,16.48-15.76.76-32.08,2.76-47.32-1.99-22.7-8.91-39.19-28.43-50.5-49.54-10.31-19.14-15.23-31.81-39.42-21.57-8.52,3.54-16.71,7.73-25.27,11.18-6.46,2.81-15.46,5.68-18.74,9.61-5.68,6.98,3.98,16.27,8.71,21.21,5.29,5.08,12.18,6.5,18.28,2.27,7.98-5.54,11.94-18.13,22.76-19.12,13.92-.58,27.21,18.76,22.11,31.61-8.57,20.09-34.85,15.14-51.13,8.34-6.99-2.74-13.8-7.91-19.53-12.45-3.57-2.69-7.65-6.44-10.28-6.52-4.13.73,1.94,13.5,2.76,16.63,6.02,17.92,16.51,33.82,27.87,49.03,10.36,14.82,25.01,26,41.38,33.52,8.04,3.85,16.6,4.74,25.38,5.48,7,.37,19.64,4.38,14.03,12.82-5.15,6.1-13.73,7.49-21.46,8.51-31.6,4.27-58.02-9.78-74.1-36.94-10.93-18.38-18.53-37.79-24.8-57.8-1.77-5.62-3.3-11.57-5.11-17.24-3.72-11.75-8.66-6.82-13.15,1.01-10.68,18.29-19.31,38.99-37.95,49.87-9.4,5.71-20.49,9.96-31.31,11.89-4.69.81-9.29,1.14-13.32.27-12.37-2.61-11.43-13.84-2.89-20.75,24.98-18.87,55.82-32.04,75.58-57.05,8.37-12.38-15.63-1.53-21.05.22-15.38,5.3-30.8,12.87-46.72,16.13-11.19,1.82-23.99-1.89-30.43-11.5-9.24-16.26,3.27-32.35,15.9-43.5,11.46-10.32,29.92-23.98,44.06-11.94,5.55,5.44,6.75,14.65,11.77,20.4,3.64,4.28,9.26,6.12,15.04,5.17,5.78-1.01,11.51-4.4,14.33-9.65,4.65-8.77-1.11-19.68-5.52-27.86-11.58-20.39-25.84-39.87-51.39-31.27-9.36,3.16-18.1,8.47-25.26,15.21-6.36,6.24-11.37,14.33-17.71,21.34-13.8,14.92-39.69,37.84-38.04,59.47.88,5.52,5.25,8.83,10.09,12.07,6.14,3.8,11.59,10.65,1.2,12.73-4.35.72-9.41.25-13.91.14-12.1-1.2-59.65,4.27-53.42-15.83,1.46-4.73,4.75-8.93,7.53-13.04,5.23-7.55,9.06-16.07,12.77-24.46,7.84-17.43,12.36-35.74,21.44-52.59,6.78-13.21,14.84-26.23,27.75-33.11,8.04-4.49,17.49-5.47,26.54-6.2,7.54-.54,15.03-.98,22.67-1.22,12,.08,24.64-1.05,36.16,2.94,11.18,4.31,21.12,12.28,29.51,20.56,11.04,11.18,17.73,26.12,25.62,39.59,3.13,5.59,7.26,11.7,12.51,13.92,10.8,4.31,22.19-3.66,32.04-7.67,6.32-2.94,12.01-5.45,18.96-8.11,5.76-2.55,14.51-4.08,17.26-10.12,1.24-4.12-2.05-7.96-4.36-11.16-5.01-6.19-9.83-12.43-17.35-12.98-10.66-.17-14.9,12.32-22.12,18.25-15.99,13.31-37.81-13.63-30.16-29.42,12.52-24.51,53.19-9.62,68.74,4.7,3.35,2.87,6.61,6.06,10.04,8.77,8.21,6.58,11.16,3.83,7.68-4.4-7.75-17.28-18.85-34.08-30.89-47.98-4.36-4.95-9-9.58-13.78-14.14-8.34-7.83-17.03-16.59-28.45-19.53-9.44-2.7-19.75.14-29.26-2.42-6.28-1.66-15.12-7.6-10.79-13.9,1.8-2,5.02-3.07,7.93-3.59C203.58-.03,208.85,0,213.97,0c19.75.02,41.72,2.7,56.91,16.45l.15.13ZM110.99,94.11c-3.19-4.77-18.96-.19-23.53,2.11-8.75,4.23-15.98,12.84-21.32,20.92-7.91,12.12-12.15,26.17-18.39,39.08-16.49,32.91,5.15,8.17,14.75-1.86,8.3-8.29,15.34-17.67,22.35-27.04,4.98-6.51,10.8-12.45,16.4-18.57,2.83-3.55,10.91-10.16,9.79-14.56l-.04-.08ZM397.41,108.1c-7.88.37-17.12,4.85-20.69,12.05-6.52,14.74,10.25,22,21.18,13.13,8.91-5.76,16.08-25.19-.29-25.19h-.2ZM450.46,197.59c11.85-12.15,18.75-28.29,25.02-43.84,1.41-3.29,2.91-6.54,4.46-9.78,2.42-5.19,10.37-20.19.76-12.62-14.16,12.37-26.55,27.21-37.95,42.01-7.45,8.91-15.29,17.72-22.83,26.6-13.51,14.55,5.99,11.98,15.32,8.47,5.87-2.24,10.71-6.14,15.08-10.69l.14-.15ZM121.51,172.84c-7.68,5.08-15.34,22.47-1.99,25.03,10.43.92,23.3-6.2,23.96-17.44.03-11.97-13.7-14.53-21.81-7.72l-.17.13Z"/>
  </g>
</svg>