<svg width="26" height="28" viewBox="0 0 26 28" fill="none" xmlns="http://www.w3.org/2000/svg">
<path d="M17.508 11.7789L17.5198 5.90484C17.5224 4.6066 17.0091 3.3605 16.093 2.44066C15.1768 1.52083 13.9328 1.00261 12.6346 1.00001C11.3363 0.997412 10.0902 1.51064 9.17038 2.4268C8.25055 3.34296 7.73233 4.58699 7.72973 5.88523L7.71797 11.7593M22.5466 9.18741L24.1639 24.8548C24.2535 25.723 23.5732 26.4761 22.7 26.4744L2.4672 26.4339C2.26122 26.4337 2.0576 26.3902 1.86954 26.3061C1.68148 26.2221 1.5132 26.0995 1.37563 25.9462C1.23806 25.7929 1.13428 25.6124 1.07102 25.4164C1.00777 25.2203 0.986452 25.0132 1.00847 24.8084L2.68979 9.14764C2.72857 8.78687 2.89954 8.45322 3.16975 8.21104C3.43995 7.96886 3.79025 7.83529 4.1531 7.83609L21.0886 7.87C21.8404 7.87151 22.4698 8.4406 22.5466 9.18741ZM8.20747 11.7602C8.20721 11.8901 8.15539 12.0145 8.06341 12.1061C7.97142 12.1977 7.84681 12.249 7.71699 12.2488C7.58716 12.2485 7.46276 12.1967 7.37114 12.1047C7.27953 12.0127 7.22821 11.8881 7.22847 11.7583C7.22873 11.6285 7.28055 11.5041 7.37253 11.4124C7.46451 11.3208 7.58912 11.2695 7.71895 11.2698C7.84877 11.27 7.97318 11.3218 8.06479 11.4138C8.15641 11.5058 8.20773 11.6304 8.20747 11.7602ZM17.9975 11.7798C17.9973 11.9097 17.9454 12.0341 17.8535 12.1257C17.7615 12.2173 17.6369 12.2686 17.507 12.2684C17.3772 12.2681 17.2528 12.2163 17.1612 12.1243C17.0696 12.0323 17.0183 11.9077 17.0185 11.7779C17.0188 11.6481 17.0706 11.5237 17.1626 11.432C17.2546 11.3404 17.3792 11.2891 17.509 11.2894C17.6388 11.2896 17.7632 11.3414 17.8548 11.4334C17.9465 11.5254 17.9978 11.65 17.9975 11.7798Z" stroke="#2A2523" stroke-width="2" stroke-linecap="round" stroke-linejoin="round"/>
</svg>
