<svg width="26" height="26" viewBox="0 0 26 26" fill="none" xmlns="http://www.w3.org/2000/svg">
<path d="M20.5397 21.5418C19.63 20.3323 18.452 19.3506 17.0983 18.674C15.7446 17.9974 14.2523 17.6444 12.7389 17.6427C11.2256 17.6383 9.73189 17.9854 8.37551 18.6566C7.01914 19.3277 5.83713 20.3047 4.92262 21.5105M20.5397 21.5418C22.3227 19.9622 23.5821 17.8779 24.1534 15.5654C24.7246 13.2529 24.5794 10.8213 23.7369 8.59323C22.8945 6.36514 21.3946 4.44577 19.4363 3.08966C17.478 1.73356 15.1537 1.0048 12.7716 1.00003C10.3896 0.99526 8.06237 1.7147 6.09862 3.06295C4.13486 4.4112 2.62734 6.32455 1.77598 8.54925C0.924627 10.774 0.769658 13.2049 1.33163 15.5197C1.8936 17.8345 3.14596 19.9238 4.92262 21.5105M20.5397 21.5418C18.3873 23.4539 15.6043 24.5056 12.7252 24.4958C9.84567 24.4944 7.06768 23.4316 4.92262 21.5105M16.6706 9.81853C16.6686 10.8571 16.254 11.8524 15.5181 12.5853C14.7823 13.3182 13.7854 13.7288 12.7468 13.7267C11.7082 13.7246 10.713 13.3101 9.98004 12.5742C9.24711 11.8383 8.83653 10.8414 8.83861 9.80285C8.84069 8.76426 9.25526 7.76903 9.99113 7.0361C10.727 6.30318 11.7239 5.89259 12.7625 5.89467C13.8011 5.89675 14.7963 6.31133 15.5292 7.04719C16.2621 7.78306 16.6727 8.77994 16.6706 9.81853Z" stroke="#2A2523" stroke-width="2" stroke-linecap="round" stroke-linejoin="round"/>
</svg>
